<svg width="58" height="58" viewBox="0 0 58 58" fill="none" xmlns="http://www.w3.org/2000/svg">
<path d="M29 58C45.0163 58 58 45.0163 58 29C58 12.9837 45.0163 0 29 0C12.9837 0 0 12.9837 0 29C0 45.0163 12.9837 58 29 58Z" fill="white"/>
<path d="M44 29L22 44V29.273V14L44 29Z" fill="white"/>
<path d="M22.7893 12.8435L22.7893 12.8435L22.7884 12.8429C22.3607 12.5531 21.8066 12.5183 21.346 12.7624C20.8869 13.0048 20.6 13.4809 20.6 14V44C20.6 44.519 20.8867 44.9949 21.3455 45.2373C21.5515 45.3472 21.7773 45.4 22 45.4C22.2766 45.4 22.5521 45.3173 22.788 45.1567L22.7883 45.1565L44.7882 30.1566C45.1703 29.8963 45.4 29.4637 45.4 29C45.4 28.5365 45.1704 28.1041 44.7898 27.8438L44.7893 27.8435L22.7893 12.8435ZM23.4 40.2159V17.7851C23.4 17.3045 23.9402 17.0181 24.3397 17.2905L40.7862 28.5032C41.1366 28.7421 41.1362 29.2583 40.7878 29.4958L24.338 40.7116C23.9397 40.9832 23.4 40.6979 23.4 40.2159Z" fill="#006FCF" stroke="#006FCF" stroke-width="0.8"/>
</svg>
